# xmcd
#
# Track frame offsets:
#	150
#	24765
#	41768
#	56706
#	74075
#	88959
#	99378
#
# Disc length: 1514 seconds
#
# Revision: 2
# Processed by: cddbd v1.5.2PL0 Copyright (c) Steve Scherf et al.
# Submitted via: audiograbber 1.83.01
#
DISCID=5d05e807
DTITLE=Ana Popovic - Trilogy - Mid-day - Vol. 2
DYEAR=2016
DGENRE=Blues
TTITLE0=You Got the Love
TTITLE1=Johnnie Ray
TTITLE2=Woman to Love
TTITLE3=Let's Do It Again (ft. Al Kapone and Cody Dickinson)
TTITLE4=Who's Yo' Mama?
TTITLE5=Wasted
TTITLE6=Crying for Me
EXTD=
EXTT0=
EXTT1=
EXTT2=
EXTT3=
EXTT4=
EXTT5=
EXTT6=
PLAYORDER=
